<?xml version="1.0" encoding="utf-8"?>
<!-- Generator: Adobe Illustrator 27.0.0, SVG Export Plug-In . SVG Version: 6.00 Build 0)  -->
<svg version="1.1" id="Layer_1" xmlns="http://www.w3.org/2000/svg" xmlns:xlink="http://www.w3.org/1999/xlink" x="0px" y="0px"
	 viewBox="0 0 512 512" style="enable-background:new 0 0 512 512;" xml:space="preserve">
<style type="text/css">
	.st0{fill:#E82042;}
</style>
<g>
	<path class="st0" d="M503.85,145.74L256,0L8.15,145.74c0,0-4.48,243.83,247.85,366.26C508.32,389.57,503.85,145.74,503.85,145.74
		 M456.41,277.48c-16.77,41.69-40.54,80.28-70.17,114.05C349.6,432.64,305.39,466.4,256,490.98
		c-49.39-24.58-93.6-58.34-130.24-99.46c-57.42-65.58-91.88-148.16-98.31-235.1L256,21.82l228.55,134.49
		C481.56,198,472.03,238.89,456.41,277.48 M212.59,140.46l-25.61-11.37l11.26,90.73l-55.36-33.08l-1.61,24.69L86.6,211.9
		l18.84,61.44L85.1,287.01l103.82,60.07L181,379.46l65.46-11.94l-1.61,63.4h21.36l-1.72-63.4l65.46,11.94l-7.92-32.39l103.94-60.07
		l-20.44-13.67l18.84-61.44l-54.67-0.46l-1.49-24.69l-55.13,33.08l11.26-90.73l-25.61,11.37l-43.18-65.23L212.59,140.46z
		 M273,264.84h-10.22v-5.17H249.8v41.81h12.98v-15.62h-6.2v-10.22H273v29.98l-7.12,6.2h-19.29l-7.01-6.2V256l7.12-6.32h19.18
		L273,256V264.84z M170.55,274.61l2.87,27.45l-10.57-2.87l-3.22-27.79l-4.25-1.15l-7.12,25.04l-9.88-2.76l16.65-60.07l25.84,7.12
		l5.17,7.92l-5.97,21.82L170.55,274.61z M195.01,307.22l-6.2-7.12l7.81-55.47l10.22,1.38l-7.24,51.57l13.21,1.84l7.35-51.57
		l10.22,1.38l-7.81,55.47l-8.04,5.17L195.01,307.22z M329.85,240.04l13.21,19.98l1.49,2.18l1.38-26.76l10.22-2.99l-2.87,41.58
		l6.32,22.4l-9.88,2.87l-6.32-22.28l-24.23-34.23L329.85,240.04z M308.03,245.78l7.81,5.17l2.41,18.84l-4.02,6.32l5.51,5.17
		l2.41,18.95l-6.2,7.12l-25.61,3.33l-8.04-61.56L308.03,245.78z M295.74,273.57l-1.95-15.62L306.3,256l1.95,15.62L295.74,273.57z
		 M297,283.79l12.52-1.61l1.95,15.62l-12.52,1.61L297,283.79z M162.4,244.97l12.86,3.56l-4.25,15.39l-12.86-3.56L162.4,244.97z"/>
</g>
</svg>
